<?xml version="1.0" encoding="UTF-8"?>
<svg version="1.1" xmlns="http://www.w3.org/2000/svg" width="900" height="900">
<path d="M0 0 C297 0 594 0 900 0 C900 297 900 594 900 900 C603 900 306 900 0 900 C0 603 0 306 0 0 Z " fill="#202832" transform="translate(0,0)"/>
<path d="M0 0 C3.93806523 3.60753218 6.86245195 7.79332174 9.9375 12.125 C11.10276676 13.7526742 12.26813413 15.38027638 13.43359375 17.0078125 C14.02640137 17.83829102 14.61920898 18.66876953 15.22998047 19.52441406 C17.97235437 23.35995494 20.7366107 27.17958802 23.5 31 C24.58345236 32.49991403 25.66678535 33.99991429 26.75 35.5 C27.554375 36.61375 27.554375 36.61375 28.375 37.75 C33.25 44.5 33.25 44.5 34.87475586 46.74975586 C35.95878416 48.2506555 37.04293142 49.75146922 38.12719727 51.25219727 C40.82587655 54.98773967 43.52251312 58.72472254 46.21484375 62.46484375 C51.76804624 70.17462973 57.35437205 77.85757631 63 85.5 C69.19011119 93.87948458 75.30474309 102.31107363 81.39111328 110.76611328 C84.09012128 114.51359784 86.79538884 118.25655845 89.5 122 C90.58336304 123.49997854 91.66669638 124.99997854 92.75 126.5 C93.28625 127.2425 93.8225 127.985 94.375 128.75 C99.25 135.5 99.25 135.5 100.87475586 137.74975586 C101.95878416 139.2506555 103.04293142 140.75146922 104.12719727 142.25219727 C106.82587655 145.98773967 109.52251312 149.72472254 112.21484375 153.46484375 C118.34174112 161.97111873 124.52003211 170.43647661 130.74951172 178.86791992 C138.60062808 189.50544731 146.32215172 200.23692461 154 211 C158.41819363 210.56827546 160.83487784 207.56583046 163.77832031 204.56225586 C164.62775711 203.71347618 164.62775711 203.71347618 165.49435425 202.84754944 C167.36281064 200.97700443 169.22041899 199.09606074 171.078125 197.21484375 C172.37212717 195.91524591 173.66679364 194.6163092 174.96209717 193.31800842 C178.36848751 189.90016715 181.7657726 186.47341237 185.16125488 183.04473877 C188.62810229 179.54719606 192.10346437 176.05813702 195.578125 172.56835938 C202.39378855 165.72052726 209.19986543 158.86325073 216 152 C218.84572111 154.82437291 221.5987892 157.58937901 224.05859375 160.7578125 C224.60193359 161.45583984 225.14527344 162.15386719 225.70507812 162.87304688 C226.27677734 163.61619141 226.84847656 164.35933594 227.4375 165.125 C228.04658203 165.91197266 228.65566406 166.69894531 229.28320312 167.50976562 C234.20451341 173.89785903 238.98938475 180.38127311 243.74780273 186.89111328 C247.73941746 192.3359939 251.83274561 197.68861103 256 203 C261.38843796 209.86785285 266.59945326 216.84701976 271.75 223.89453125 C275.74126859 229.33798016 279.83358618 234.68967069 284 240 C290.71716219 248.56155486 297.18444606 257.29571648 303.59643555 266.08740234 C305.05050581 268.06882284 306.52215018 270.03627053 308 272 C312.26567759 270.45604245 314.43369666 267.24781751 317.0625 263.75 C318.02841504 262.49201026 318.99456837 261.23420345 319.9609375 259.9765625 C320.4569043 259.3259082 320.95287109 258.67525391 321.46386719 258.00488281 C324.00642664 254.68646287 326.59901281 251.40762801 329.1875 248.125 C330.11872351 246.94028801 331.04973501 245.75540931 331.98046875 244.5703125 C332.64691406 243.72210937 333.31335938 242.87390625 334 242 C337.60189277 243.20063092 338.34305857 244.39814637 340.625 247.375 C341.33011719 248.28121094 342.03523437 249.18742188 342.76171875 250.12109375 C343.86966797 251.54615234 343.86966797 251.54615234 345 253 C346.4731862 254.81736422 347.95238379 256.62987169 349.4375 258.4375 C350.18902344 259.35402344 350.94054687 260.27054688 351.71484375 261.21484375 C352.46894531 262.13394531 353.22304688 263.05304688 354 264 C355.50028317 265.83310162 357.00028408 267.66643427 358.5 269.5 C359.2425 270.4075 359.985 271.315 360.75 272.25 C403.5 324.5 403.5 324.5 405.73046875 327.2265625 C407.2950106 329.13848112 408.86015075 331.04991025 410.42578125 332.9609375 C411.21339844 333.92257812 412.00101563 334.88421875 412.8125 335.875 C413.52019531 336.73867188 414.22789062 337.60234375 414.95703125 338.4921875 C415.96830078 339.73355469 415.96830078 339.73355469 417 341 C417.6911792 341.650896 418.3823584 342.30179199 419.09448242 342.97241211 C421.95063075 347.51041281 421.57163084 351.68902855 421.53125 356.94921875 C421.53684433 358.02651749 421.54243866 359.10381622 421.54820251 360.21376038 C421.55662611 363.70553536 421.53147897 367.19587046 421.5 370.6875 C421.49119308 372.46465393 421.49119308 372.46465393 421.48220825 374.27770996 C421.38358198 391.12805891 421.07889444 407.56513931 417 424 C416.75862305 424.99660645 416.51724609 425.99321289 416.26855469 427.02001953 C404.80420059 472.92790793 378.05723441 513.81958064 340 542 C339.17242188 542.62261719 338.34484375 543.24523437 337.4921875 543.88671875 C295.79612774 574.20470119 249.42641093 581.48363195 199.1528976 581.40683305 C193.88074002 581.40206123 188.60861752 581.41464639 183.33647156 581.42485046 C173.03378487 581.44196613 162.73115937 581.44289353 152.42846218 581.43763756 C144.04625785 581.43358091 135.66407147 581.43505709 127.28186798 581.44038582 C125.48603981 581.44150845 125.48603981 581.44150845 123.65393229 581.44265376 C121.22105278 581.44418539 118.78817328 581.44572374 116.35529378 581.44726873 C93.58708283 581.46096774 70.81890632 581.45557451 48.05069616 581.44408352 C27.26930375 581.43415498 6.48800042 581.44708993 -14.29337826 581.47101771 C-35.68643781 581.49546218 -57.07945595 581.5050034 -78.47252917 581.49836498 C-90.46117669 581.49488449 -102.44975576 581.4970271 -114.43839264 581.51461601 C-124.64433531 581.52940511 -134.85016134 581.52988643 -145.05610189 581.5125451 C-150.2522017 581.50408745 -155.44809374 581.50175582 -160.64418221 581.51719666 C-219.75629994 581.68008857 -273.03553076 567.70305932 -317 526 C-317.73404053 525.31478271 -317.73404053 525.31478271 -318.48291016 524.61572266 C-332.39031875 511.56588707 -343.4455061 496.45965911 -353 480 C-353.3810791 479.35160156 -353.7621582 478.70320313 -354.15478516 478.03515625 C-373.10125118 445.42172518 -379.67745866 408.96611203 -380.0625 371.6875 C-380.07656891 370.52210693 -380.09063782 369.35671387 -380.10513306 368.15600586 C-380.2023677 350.12339923 -378.75741588 336.84699899 -366.56005859 322.80859375 C-364.73644108 320.69445313 -363.32959741 318.45159968 -362 316 C-358.51145382 317.16284873 -358.2130742 317.80189748 -356.36328125 320.83203125 C-355.62634033 322.0223999 -355.62634033 322.0223999 -354.87451172 323.23681641 C-354.10131592 324.51177979 -354.10131592 324.51177979 -353.3125 325.8125 C-352.2393121 327.54621145 -351.16509182 329.27928426 -350.08984375 331.01171875 C-349.56503418 331.86169434 -349.04022461 332.71166992 -348.49951172 333.58740234 C-346.50363934 336.79860567 -344.4555505 339.96790777 -342.375 343.125 C-341.76398438 344.05570313 -341.15296875 344.98640625 -340.5234375 345.9453125 C-339.15933764 348.10871626 -339.15933764 348.10871626 -337 349 C-336.73300293 348.2795752 -336.46600586 347.55915039 -336.19091797 346.81689453 C-334.99086401 343.97839051 -333.588607 341.53421883 -331.9453125 338.9296875 C-331.33655273 337.96039307 -330.72779297 336.99109863 -330.10058594 335.99243164 C-329.44864258 334.9636792 -328.79669922 333.93492676 -328.125 332.875 C-327.45243164 331.80693115 -326.77986328 330.7388623 -326.08691406 329.63842773 C-324.71306102 327.45785053 -323.33741375 325.27840271 -321.95996094 323.10009766 C-320.21104758 320.33381692 -318.46739273 317.56434018 -316.7265625 314.79296875 C-310.23713468 304.47249601 -303.64722834 294.21945932 -297 284 C-288.96936304 290.76066231 -281.60243357 298.02256592 -274.77734375 306.00390625 C-272.76731223 308.26132626 -270.65167047 310.37735713 -268.5 312.5 C-265.73439592 315.22829407 -263.08712969 317.98516834 -260.5625 320.9375 C-257.84380752 324.1103592 -254.97248325 327.06338382 -252 330 C-248.43599698 333.52106323 -245.09695832 337.13186008 -241.84375 340.9375 C-238.85617789 344.27952982 -235.63047782 347.37913312 -232.4375 350.5234375 C-229.58469194 353.42196364 -226.95668295 356.46134237 -224.375 359.6015625 C-223.92125 360.06304688 -223.4675 360.52453125 -223 361 C-222.34 361 -221.68 361 -221 361 C-219.4849714 358.8432754 -218.10781087 356.69190734 -216.75 354.4375 C-216.31381348 353.7264209 -215.87762695 353.0153418 -215.42822266 352.28271484 C-213.94466797 349.85962709 -212.47211092 347.43005518 -211 345 C-209.93013621 343.24321625 -208.85981056 341.48671369 -207.7890625 339.73046875 C-206.05651294 336.88704623 -204.32515142 334.04292504 -202.59667969 331.19702148 C-198.09209526 323.78086381 -193.55304479 316.38648939 -189 309 C-183.3972088 299.90905842 -177.82663657 290.79939987 -172.2824707 281.67260742 C-167.9438652 274.53620386 -163.57081995 267.42151013 -159.1875 260.3125 C-153.22651942 250.64323499 -147.31433484 240.94567416 -141.42807007 231.23086548 C-135.66915445 221.72799065 -129.85977911 212.25728197 -124.02612305 202.80004883 C-119.08601513 194.78385254 -114.19141792 186.74099635 -109.3125 178.6875 C-103.9048448 169.761348 -98.45516156 160.86329951 -92.94580078 151.99951172 C-88.10878681 144.20447193 -83.35196511 136.36133232 -78.59863281 128.51513672 C-73.43265081 119.98918522 -68.23370977 111.48463006 -63 103 C-57.46261869 94.02232678 -51.96600578 85.02120487 -46.5 76 C-40.31721072 65.79600768 -34.08813716 55.62174684 -27.82617188 45.46606445 C-22.77353916 37.26810504 -17.75792589 29.04818187 -12.7565918 20.81884766 C-8.52910713 13.86385389 -4.27897708 6.92343807 0 0 Z " fill="#89B0E0" transform="translate(429,269)"/>
<path d="M0 0 C297 0 594 0 900 0 C900 297 900 594 900 900 C603 900 306 900 0 900 C0 603 0 306 0 0 Z M212 53 C210.2548292 53.35542389 210.2548292 53.35542389 208.47440243 53.71802807 C205.7877368 54.29593566 203.14973434 54.96010699 200.5 55.6875 C199.55334473 55.94313721 198.60668945 56.19877441 197.63134766 56.4621582 C163.93280601 65.86333958 135.46660093 83.23117247 110 107 C109.18789062 107.75796875 108.37578125 108.5159375 107.5390625 109.296875 C80.54768872 135.3516396 62.85221544 170.70534241 54.375 206.875 C54.16842773 207.74825928 53.96185547 208.62151855 53.74902344 209.52124023 C50.60705133 223.4289371 49.70399488 236.91029159 49.73257446 251.10517883 C49.72882974 252.88975995 49.72422498 254.67433943 49.71884382 256.45891637 C49.70669945 261.32313231 49.7068641 266.18727903 49.70923257 271.05150664 C49.70964293 276.31355875 49.69858061 281.57558932 49.68911743 286.83763123 C49.67255239 297.13344143 49.66700988 307.42922872 49.66589268 317.72505114 C49.66493985 326.10262007 49.66081786 334.48018148 49.65449142 342.85774803 C49.63688952 366.65390971 49.62765064 390.4500534 49.62915237 414.24622164 C49.62923228 415.52726586 49.6293122 416.80831008 49.62939453 418.12817383 C49.62947629 419.41079805 49.62955805 420.69342226 49.62964229 422.01491388 C49.63045439 442.77984282 49.61133327 463.54469908 49.5831178 484.30960701 C49.55431859 505.67422704 49.54058144 527.03881171 49.54230535 548.40345162 C49.54296693 560.38048797 49.53757698 572.35744817 49.51594925 584.33446693 C49.49764437 594.53612888 49.49346577 604.73768019 49.5069681 614.93935154 C49.51345173 620.13351272 49.51378393 625.32746222 49.4962616 630.52160263 C49.29676288 693.72450588 65.72169799 748.39364991 110.875 794.1875 C117.51094809 800.79227511 124.34213581 806.60908478 132 812 C132.55413574 812.39848145 133.10827148 812.79696289 133.67919922 813.20751953 C175.47885835 843.1388708 221.14437957 850.65221049 271.29670584 850.52289867 C276.56404525 850.51374154 281.83133437 850.52787007 287.09866333 850.53881836 C297.38377895 850.55649621 307.66877705 850.55281173 317.95389705 850.5411678 C326.32217524 850.53209065 334.69042076 850.53092787 343.05870247 850.53526306 C344.25509056 850.53587599 345.45147866 850.53648893 346.68412094 850.53712043 C349.11546859 850.53839949 351.54681622 850.53969634 353.97816385 850.5410108 C376.71496122 850.55238528 399.45169382 850.53935248 422.18848056 850.51780933 C441.64562427 850.49994353 461.10267247 850.50304433 480.55981445 850.52148438 C503.22026626 850.5429506 525.88066146 850.55128453 548.54112202 850.53903532 C550.96324193 850.53776129 553.38536184 850.5365038 555.80748177 850.53526306 C556.99883652 850.53464596 558.19019128 850.53402886 559.4176477 850.53339306 C567.76342031 850.5299572 576.10915664 850.53573023 584.45492363 850.54518127 C594.64354583 850.55646691 604.83204497 850.55322461 615.0206533 850.5320583 C620.20677422 850.52163511 625.3926909 850.51727449 630.57880974 850.53065491 C693.46378176 850.67902745 747.99212649 834.49447195 793.6875 789.625 C800.07165815 783.21963203 805.62457321 776.25943339 811 769 C811.62261719 768.17242188 812.24523437 767.34484375 812.88671875 766.4921875 C843.17958444 724.83067059 850.48378701 678.48762038 850.40683305 628.25209963 C850.40206103 622.99423795 850.41464661 617.73641143 850.42485046 612.4785614 C850.44196609 602.20361315 850.44289349 591.92872624 850.43763756 581.65376744 C850.43358068 573.29350152 850.43505736 564.93325359 850.44038582 556.57298851 C850.44113424 555.37883382 850.44188266 554.18467912 850.44265376 552.95433792 C850.44418539 550.52766115 850.44572374 548.10098437 850.44726873 545.67430761 C850.46096788 522.96377037 850.45557455 500.25326768 850.44408352 477.54273125 C850.43415634 456.81697977 850.44708757 436.09131764 850.47101771 415.36557994 C850.49546669 394.02788615 850.50500221 372.69023387 850.49836498 351.35252637 C850.49488531 339.39570498 850.49702153 327.43895221 850.51461601 315.48214149 C850.52941084 305.30257773 850.52987915 295.12313093 850.5125451 284.94356928 C850.50409183 279.76152225 850.50174474 274.57968348 850.51719666 269.39764786 C850.69089985 206.5225823 834.48407911 151.99728938 789.625 106.3125 C783.21963203 99.92834185 776.25943339 94.37542679 769 89 C768.17242188 88.37738281 767.34484375 87.75476563 766.4921875 87.11328125 C741.14625694 68.68378259 711.87217796 56.96895741 681 52 C680.04055876 51.83322071 679.08111753 51.66644143 678.09260231 51.49460822 C668.33398636 49.9212541 658.84322816 49.71541724 648.98143005 49.73930359 C647.19414885 49.7362773 645.40686895 49.73238543 643.6195913 49.72771102 C638.74345943 49.71748349 633.86740153 49.71959941 628.99126375 49.72389162 C623.71838563 49.72636849 618.44552487 49.71733267 613.1726532 49.70985413 C602.8549858 49.69713075 592.53734445 49.69531057 582.21967053 49.69765439 C573.82725628 49.69944072 565.43484991 49.69768116 557.0424366 49.69342995 C555.84588986 49.69283476 554.64934312 49.69223957 553.41653739 49.69162634 C550.98534122 49.69041453 548.55414506 49.68920039 546.12294889 49.68798397 C523.34202104 49.67711706 500.56110801 49.67926662 477.78017933 49.68536881 C456.97302235 49.69053455 436.16591223 49.67929007 415.35876452 49.66027059 C393.96143067 49.64086261 372.56411895 49.63264155 351.16677624 49.63639385 C339.16698449 49.63830174 327.16723259 49.63585877 315.16744804 49.62167931 C304.94916248 49.6097266 294.73094129 49.60840389 284.51265477 49.62046947 C279.30700408 49.62633156 274.1014709 49.62753222 268.89582825 49.61546707 C240.29772659 49.34312342 240.29772659 49.34312342 212 53 Z " fill="#000000" transform="translate(0,0)"/>
<path d="M0 0 C3.93806523 3.60753218 6.86245195 7.79332174 9.9375 12.125 C11.10276676 13.7526742 12.26813413 15.38027638 13.43359375 17.0078125 C14.02640137 17.83829102 14.61920898 18.66876953 15.22998047 19.52441406 C17.97235437 23.35995494 20.7366107 27.17958802 23.5 31 C24.58345236 32.49991403 25.66678535 33.99991429 26.75 35.5 C27.554375 36.61375 27.554375 36.61375 28.375 37.75 C33.25 44.5 33.25 44.5 34.87475586 46.74975586 C35.95878416 48.2506555 37.04293142 49.75146922 38.12719727 51.25219727 C40.82587655 54.98773967 43.52251312 58.72472254 46.21484375 62.46484375 C51.76804624 70.17462973 57.35437205 77.85757631 63 85.5 C69.19011119 93.87948458 75.30474309 102.31107363 81.39111328 110.76611328 C84.09012128 114.51359784 86.79538884 118.25655845 89.5 122 C90.58336304 123.49997854 91.66669638 124.99997854 92.75 126.5 C93.28625 127.2425 93.8225 127.985 94.375 128.75 C99.25 135.5 99.25 135.5 100.87475586 137.74975586 C101.95878416 139.2506555 103.04293142 140.75146922 104.12719727 142.25219727 C106.82587655 145.98773967 109.52251312 149.72472254 112.21484375 153.46484375 C118.34174112 161.97111873 124.52003211 170.43647661 130.74951172 178.86791992 C138.60062808 189.50544731 146.32215172 200.23692461 154 211 C158.41819363 210.56827546 160.83487784 207.56583046 163.77832031 204.56225586 C164.62775711 203.71347618 164.62775711 203.71347618 165.49435425 202.84754944 C167.36281064 200.97700443 169.22041899 199.09606074 171.078125 197.21484375 C172.37212717 195.91524591 173.66679364 194.6163092 174.96209717 193.31800842 C178.36848751 189.90016715 181.7657726 186.47341237 185.16125488 183.04473877 C188.62810229 179.54719606 192.10346437 176.05813702 195.578125 172.56835938 C202.39378855 165.72052726 209.19986543 158.86325073 216 152 C218.84572111 154.82437291 221.5987892 157.58937901 224.05859375 160.7578125 C224.60193359 161.45583984 225.14527344 162.15386719 225.70507812 162.87304688 C226.27677734 163.61619141 226.84847656 164.35933594 227.4375 165.125 C228.04658203 165.91197266 228.65566406 166.69894531 229.28320312 167.50976562 C234.20451341 173.89785903 238.98938475 180.38127311 243.74780273 186.89111328 C247.73941746 192.3359939 251.83274561 197.68861103 256 203 C261.38843796 209.86785285 266.59945326 216.84701976 271.75 223.89453125 C275.74126859 229.33798016 279.83358618 234.68967069 284 240 C290.71716219 248.56155486 297.18444606 257.29571648 303.59643555 266.08740234 C304.59373861 267.44639907 305.62538583 268.78048224 306.67944336 270.09594727 C308 272 308 272 307.9921875 274.37890625 C306.68520849 277.83159489 304.56400081 280.23933981 302.125 282.9375 C301.11242495 284.09446871 300.10207274 285.25338594 299.09375 286.4140625 C298.57683594 287.00735352 298.05992187 287.60064453 297.52734375 288.21191406 C295.13738183 291.00988099 292.87966276 293.90519348 290.625 296.8125 C285.0765947 303.9380614 279.3885353 310.94448981 273.67919922 317.94140625 C271.40479008 320.72969033 269.13375861 323.52070804 266.86425781 326.31298828 C265.75936904 327.67173763 264.65327751 329.02950995 263.54589844 330.38623047 C261.16561837 333.30708428 258.80274962 336.23499947 256.51171875 339.2265625 C255.80660156 340.14179687 255.10148438 341.05703125 254.375 342 C253.78460937 342.78375 253.19421875 343.5675 252.5859375 344.375 C252.06257812 344.91125 251.53921875 345.4475 251 346 C250.01 346 249.02 346 248 346 C246.44114356 344.03652975 245.11351328 342.13107917 243.78125 340.01953125 C243.37105621 339.3881424 242.96086243 338.75675354 242.53823853 338.10623169 C241.18236808 336.01447239 239.84138061 333.91357472 238.5 331.8125 C237.55689993 330.35225234 236.61271368 328.89270566 235.66748047 327.43383789 C233.72258269 324.42987834 231.78278594 321.4227187 229.84667969 318.41308594 C226.03521017 312.49491327 222.16947736 306.61264462 218.30288696 300.73040771 C216.36156229 297.77544167 214.42476811 294.81751288 212.48828125 291.859375 C212.11549545 291.28996185 211.74270966 290.72054871 211.35862732 290.13388062 C205.22614644 280.76437005 199.11159813 271.38314146 193 262 C190.34286169 264.55299996 188.0902111 267.09787079 186.00390625 270.1328125 C185.45178467 270.93001709 184.89966309 271.72722168 184.33081055 272.54858398 C183.74726807 273.39880127 183.16372559 274.24901855 182.5625 275.125 C181.31105897 276.93179576 180.05842861 278.73776826 178.8046875 280.54296875 C178.17143555 281.45481934 177.53818359 282.36666992 176.88574219 283.30615234 C174.03181162 287.38309044 171.11342598 291.41206657 168.1875 295.4375 C163.01980145 302.55500795 157.96453098 309.73921308 153 317 C149.11287407 315.70429136 147.89236681 313.37314961 145.6875 310.125 C144.7932365 308.84005188 143.89731129 307.55625913 143 306.2734375 C142.51789063 305.58217773 142.03578125 304.89091797 141.5390625 304.17871094 C138.81627728 300.3243113 135.99756767 296.54097328 133.1875 292.75 C128.58628505 286.52735704 124.0207086 280.28136931 119.5 274 C112.74024399 264.61213466 105.87582562 255.30303378 99 246 C91.58907487 235.97297333 84.20681071 225.9285799 76.92285156 215.80883789 C70.68543006 207.1543677 64.34405212 198.57645788 58 190 C53.82514553 194.84655135 50.60560842 200.26344358 47.25 205.6875 C46.59966797 206.73317139 45.94933594 207.77884277 45.27929688 208.85620117 C39.67016806 217.88665748 34.09827159 226.94038304 28.54394531 236.00463867 C24.42898027 242.71301095 20.24657042 249.37413965 16 256 C13.12837323 252.55389037 10.7396206 249.06489308 8.48828125 245.1875 C8.16299942 244.63000061 7.83771759 244.07250122 7.50257874 243.49810791 C6.43555044 241.66751331 5.37411115 239.83374048 4.3125 238 C3.55789486 236.70384505 2.8028412 235.40795113 2.04736328 234.11230469 C0.47750318 231.41902662 -1.09042471 228.72463899 -2.65673828 226.02929688 C-6.2998836 219.7619652 -9.96031988 213.50475877 -13.625 207.25 C-14.14652649 206.3598671 -14.14652649 206.3598671 -14.67858887 205.45175171 C-19.8960882 196.55082147 -25.14605003 187.66967591 -30.4375 178.8125 C-31.07059082 177.74870117 -31.70368164 176.68490234 -32.35595703 175.58886719 C-32.93845215 174.61723633 -33.52094727 173.64560547 -34.12109375 172.64453125 C-34.6308374 171.79221924 -35.14058105 170.93990723 -35.66577148 170.06176758 C-36.96668939 167.89365655 -36.96668939 167.89365655 -39 166 C-39.68437134 167.1432373 -39.68437134 167.1432373 -40.38256836 168.30957031 C-50.4763012 185.16561314 -60.61381364 201.99384529 -70.8248291 218.77909851 C-73.33610095 222.90729089 -75.84464139 227.03713297 -78.3515625 231.16796875 C-78.7106218 231.75960815 -79.06968109 232.35124756 -79.43962097 232.96081543 C-80.16237734 234.15175163 -80.88513024 235.34268994 -81.60787964 236.53363037 C-87.63047987 246.45695251 -93.66129587 256.37524672 -99.69873047 266.28955078 C-104.24232511 273.75209205 -108.77873665 281.21898326 -113.3125 288.6875 C-113.66744537 289.27220062 -114.02239075 289.85690125 -114.38809204 290.45932007 C-116.92558359 294.63943206 -119.46281982 298.81969901 -122 303 C-124.89566006 307.77093852 -127.79142962 312.54181054 -130.6875 317.3125 C-131.04268707 317.89760345 -131.39787415 318.48270691 -131.76382446 319.08554077 C-137.06891569 327.82420032 -142.38165607 336.55817797 -147.69873047 345.28955078 C-154.41858131 356.32644297 -161.1221326 367.37322987 -167.82666016 378.41943359 C-171.03201991 383.70040251 -174.2382214 388.98086036 -177.44436646 394.26135254 C-178.49410921 395.99029777 -179.54381407 397.71926601 -180.59350586 399.44824219 C-183.91082379 404.91225858 -187.22834128 410.37615357 -190.54644775 415.83969116 C-192.11233065 418.41807069 -193.67811728 420.99650867 -195.24389648 423.57495117 C-195.98977933 424.80317052 -196.73570925 426.03136127 -197.48168945 427.25952148 C-198.51655834 428.96330631 -199.55125146 430.66719788 -200.5859375 432.37109375 C-201.1742334 433.33974365 -201.7625293 434.30839355 -202.36865234 435.30639648 C-203.91934972 437.8668341 -205.46192274 440.43196551 -207 443 C-211.25579382 441.39518992 -213.85892046 438.17841288 -216.8125 434.875 C-217.34657471 434.28678467 -217.88064941 433.69856934 -218.4309082 433.0925293 C-221.7616307 429.41391897 -225.05250624 425.70085841 -228.30078125 421.94921875 C-231.81406038 417.91904339 -235.41746334 413.96853388 -239 410 C-240.50028679 408.33359149 -242.00028872 406.66692647 -243.5 405 C-244.2425 404.175 -244.985 403.35 -245.75 402.5 C-252.5 395 -252.5 395 -254.7421875 392.5078125 C-256.26708244 390.81407106 -257.79315402 389.12138831 -259.3203125 387.4296875 C-263.92541353 382.32505009 -268.49132416 377.19005129 -273 372 C-276.44124143 373.14708048 -276.94868488 373.9277272 -279.00390625 376.796875 C-279.86121338 377.97963013 -279.86121338 377.97963013 -280.73583984 379.1862793 C-281.3386377 380.03230713 -281.94143555 380.87833496 -282.5625 381.75 C-283.81528889 383.48127784 -285.06920236 385.21174246 -286.32421875 386.94140625 C-286.94345215 387.79750488 -287.56268555 388.65360352 -288.20068359 389.53564453 C-290.70321424 392.9631268 -293.27561734 396.33314781 -295.875 399.6875 C-296.67679688 400.72261719 -297.47859375 401.75773437 -298.3046875 402.82421875 C-299.14386719 403.90123047 -299.14386719 403.90123047 -300 405 C-304.13730701 403.62089766 -305.30864955 400.80046897 -307.5 397.25 C-308.46999422 395.71528546 -309.44147012 394.18150684 -310.4140625 392.6484375 C-310.96739258 391.7728418 -311.52072266 390.89724609 -312.09082031 389.99511719 C-315.54699472 384.57307785 -319.0753417 379.19813316 -322.6003418 373.82067871 C-323.8559041 371.90414858 -325.10879349 369.98589262 -326.36132812 368.06738281 C-326.95841583 367.15527039 -326.95841583 367.15527039 -327.56756592 366.22473145 C-328.3406724 365.04327852 -329.11192387 363.86060931 -329.88116455 362.67663574 C-331.86136707 359.64829859 -333.93931553 356.77179147 -336.1953125 353.9453125 C-338 351 -338 351 -337.65234375 348.640625 C-337.10707031 347.76921875 -336.56179688 346.8978125 -336 346 C-335.62633301 345.34451172 -335.25266602 344.68902344 -334.86767578 344.01367188 C-333.47122537 341.56765667 -332.0227484 339.15844676 -330.5625 336.75 C-330.02753906 335.86320557 -329.49257813 334.97641113 -328.94140625 334.06274414 C-324.69466593 327.06100615 -320.28960668 320.17357884 -315.80859375 313.3203125 C-312.15770096 307.72894875 -308.60987371 302.07267675 -305.05859375 296.41772461 C-302.42952408 292.23752179 -299.76184706 288.09380167 -297 284 C-288.91636641 290.67778427 -281.58925439 298.03797781 -274.77734375 306.00390625 C-272.76731223 308.26132626 -270.65167047 310.37735713 -268.5 312.5 C-265.73439592 315.22829407 -263.08712969 317.98516834 -260.5625 320.9375 C-257.84380752 324.1103592 -254.97248325 327.06338382 -252 330 C-248.43599698 333.52106323 -245.09695832 337.13186008 -241.84375 340.9375 C-238.85617789 344.27952982 -235.63047782 347.37913312 -232.4375 350.5234375 C-229.58469194 353.42196364 -226.95668295 356.46134237 -224.375 359.6015625 C-223.92125 360.06304688 -223.4675 360.52453125 -223 361 C-222.34 361 -221.68 361 -221 361 C-219.4849714 358.8432754 -218.10781087 356.69190734 -216.75 354.4375 C-216.31381348 353.7264209 -215.87762695 353.0153418 -215.42822266 352.28271484 C-213.94466797 349.85962709 -212.47211092 347.43005518 -211 345 C-209.93013621 343.24321625 -208.85981056 341.48671369 -207.7890625 339.73046875 C-206.05651294 336.88704623 -204.32515142 334.04292504 -202.59667969 331.19702148 C-198.09209526 323.78086381 -193.55304479 316.38648939 -189 309 C-183.3972088 299.90905842 -177.82663657 290.79939987 -172.2824707 281.67260742 C-167.9438652 274.53620386 -163.57081995 267.42151013 -159.1875 260.3125 C-153.22651942 250.64323499 -147.31433484 240.94567416 -141.42807007 231.23086548 C-135.66915445 221.72799065 -129.85977911 212.25728197 -124.02612305 202.80004883 C-119.08601513 194.78385254 -114.19141792 186.74099635 -109.3125 178.6875 C-103.9048448 169.761348 -98.45516156 160.86329951 -92.94580078 151.99951172 C-88.10878681 144.20447193 -83.35196511 136.36133232 -78.59863281 128.51513672 C-73.43265081 119.98918522 -68.23370977 111.48463006 -63 103 C-57.46261869 94.02232678 -51.96600578 85.02120487 -46.5 76 C-40.31721072 65.79600768 -34.08813716 55.62174684 -27.82617188 45.46606445 C-22.77353916 37.26810504 -17.75792589 29.04818187 -12.7565918 20.81884766 C-8.52910713 13.86385389 -4.27897708 6.92343807 0 0 Z " fill="#B9D6EF" transform="translate(429,269)"/>
<path d="M0 0 C0.99 0 1.98 0 3 0 C3.33 1.98 3.66 3.96 4 6 C2.35 6.33 0.7 6.66 -1 7 C-1.625 4.625 -1.625 4.625 -2 2 C-1.34 1.34 -0.68 0.68 0 0 Z " fill="#828C99" transform="translate(781,213)"/>
<path d="M0 0 C2.125 0.375 2.125 0.375 4 1 C4 2.32 4 3.64 4 5 C2.35 5.33 0.7 5.66 -1 6 C-1.625 4.125 -1.625 4.125 -2 2 C-1.34 1.34 -0.68 0.68 0 0 Z " fill="#87919E" transform="translate(335,104)"/>
<path d="M0 0 C1.32 0 2.64 0 4 0 C4 1.65 4 3.3 4 5 C2.35 5.33 0.7 5.66 -1 6 C-1.042721 4.33388095 -1.04063832 2.66617115 -1 1 C-0.67 0.67 -0.34 0.34 0 0 Z " fill="#7D8794" transform="translate(662,346)"/>
<path d="M0 0 C1.32 0 2.64 0 4 0 C4 1.65 4 3.3 4 5 C2.35 5.33 0.7 5.66 -1 6 C-1.042721 4.33388095 -1.04063832 2.66617115 -1 1 C-0.67 0.67 -0.34 0.34 0 0 Z " fill="#7D8693" transform="translate(170,190)"/>
<path d="M0 0 C1.32 0 2.64 0 4 0 C4 1.65 4 3.3 4 5 C2.35 5.33 0.7 5.66 -1 6 C-1.042721 4.33388095 -1.04063832 2.66617115 -1 1 C-0.67 0.67 -0.34 0.34 0 0 Z " fill="#7D8794" transform="translate(491,172)"/>
<path d="M0 0 C1.32 0 2.64 0 4 0 C4 1.65 4 3.3 4 5 C2.35 5.33 0.7 5.66 -1 6 C-1.042721 4.33388095 -1.04063832 2.66617115 -1 1 C-0.67 0.67 -0.34 0.34 0 0 Z " fill="#7D8794" transform="translate(269,136)"/>
<path d="M0 0 C0.99 0 1.98 0 3 0 C3.33 1.65 3.66 3.3 4 5 C2.35 5.33 0.7 5.66 -1 6 C-1.625 4.125 -1.625 4.125 -2 2 C-1.34 1.34 -0.68 0.68 0 0 Z " fill="#8D98A5" transform="translate(391,296)"/>
<path d="M0 0 C1.65 0 3.3 0 5 0 C5 1.65 5 3.3 5 5 C3.35 5 1.7 5 0 5 C0 3.35 0 1.7 0 0 Z " fill="#828C99" transform="translate(529,319)"/>
<path d="M0 0 C1.32 0 2.64 0 4 0 C4 1.65 4 3.3 4 5 C2.68 5.33 1.36 5.66 0 6 C-1.125 2.25 -1.125 2.25 0 0 Z " fill="#8D98A5" transform="translate(746,285)"/>
<path d="M0 0 C1.32 0 2.64 0 4 0 C4 1.65 4 3.3 4 5 C2.35 5 0.7 5 -1 5 C-0.67 3.35 -0.34 1.7 0 0 Z " fill="#86909E" transform="translate(581,233)"/>
<path d="M0 0 C1.32 0 2.64 0 4 0 C4 1.65 4 3.3 4 5 C2.35 5 0.7 5 -1 5 C-0.67 3.35 -0.34 1.7 0 0 Z " fill="#86919E" transform="translate(593,164)"/>
<path d="M0 0 C1.98 0.495 1.98 0.495 4 1 C4 2.32 4 3.64 4 5 C2.35 5 0.7 5 -1 5 C-0.67 3.35 -0.34 1.7 0 0 Z " fill="#828C99" transform="translate(779,124)"/>
<path d="M0 0 C1.32 0 2.64 0 4 0 C3.67 1.65 3.34 3.3 3 5 C1.68 4.67 0.36 4.34 -1 4 C-0.67 2.68 -0.34 1.36 0 0 Z " fill="#8D97A4" transform="translate(341,387)"/>
<path d="M0 0 C1.32 0 2.64 0 4 0 C3.67 1.65 3.34 3.3 3 5 C1.68 5 0.36 5 -1 5 C-0.67 3.35 -0.34 1.7 0 0 Z " fill="#8E99A7" transform="translate(799,355)"/>
<path d="M0 0 C1.32 0 2.64 0 4 0 C3.67 1.65 3.34 3.3 3 5 C1.68 5 0.36 5 -1 5 C-0.67 3.35 -0.34 1.7 0 0 Z " fill="#8E99A6" transform="translate(487,238)"/>
<path d="M0 0 C1.32 0 2.64 0 4 0 C3.67 1.65 3.34 3.3 3 5 C1.68 5 0.36 5 -1 5 C-0.67 3.35 -0.34 1.7 0 0 Z " fill="#8E99A7" transform="translate(430,112)"/>
<path d="M0 0 C0.99 0 1.98 0 3 0 C3 1.65 3 3.3 3 5 C1.35 5 -0.3 5 -2 5 C-1.125 1.125 -1.125 1.125 0 0 Z " fill="#848F9C" transform="translate(565,106)"/>
<path d="M0 0 C1.32 0 2.64 0 4 0 C4 1.65 4 3.3 4 5 C2.68 5 1.36 5 0 5 C0 3.35 0 1.7 0 0 Z " fill="#8F99A7" transform="translate(267,442)"/>
<path d="M0 0 C1.32 0 2.64 0 4 0 C4 1.65 4 3.3 4 5 C2.68 5 1.36 5 0 5 C0 3.35 0 1.7 0 0 Z " fill="#909AA8" transform="translate(660,244)"/>
<path d="M0 0 C1.98 0.495 1.98 0.495 4 1 C4 2.32 4 3.64 4 5 C2.35 4.67 0.7 4.34 -1 4 C-0.67 2.68 -0.34 1.36 0 0 Z " fill="#9AA5B3" transform="translate(662,110)"/>
<path d="M0 0 C0.99 0 1.98 0 3 0 C3 1.65 3 3.3 3 5 C1.68 5 0.36 5 -1 5 C-0.67 3.35 -0.34 1.7 0 0 Z " fill="#949FAD" transform="translate(745,497)"/>
<path d="M0 0 C0.99 0 1.98 0 3 0 C3 1.65 3 3.3 3 5 C1.68 5 0.36 5 -1 5 C-0.67 3.35 -0.34 1.7 0 0 Z " fill="#949FAD" transform="translate(559,407)"/>
<path d="M0 0 C0.99 0 1.98 0 3 0 C3 1.65 3 3.3 3 5 C1.68 5 0.36 5 -1 5 C-0.67 3.35 -0.34 1.7 0 0 Z " fill="#8C96A3" transform="translate(208,385)"/>
<path d="M0 0 C1.32 0 2.64 0 4 0 C4 1.32 4 2.64 4 4 C2.35 4 0.7 4 -1 4 C-0.67 2.68 -0.34 1.36 0 0 Z " fill="#8C96A4" transform="translate(92,384)"/>
<path d="M0 0 C0.99 0 1.98 0 3 0 C3 1.65 3 3.3 3 5 C1.68 5 0.36 5 -1 5 C-0.67 3.35 -0.34 1.7 0 0 Z " fill="#8C97A4" transform="translate(625,382)"/>
<path d="M0 0 C1.32 0 2.64 0 4 0 C4 1.32 4 2.64 4 4 C2.35 4 0.7 4 -1 4 C-0.67 2.68 -0.34 1.36 0 0 Z " fill="#8993A0" transform="translate(287,275)"/>
<path d="M0 0 C1.32 0 2.64 0 4 0 C4 1.32 4 2.64 4 4 C2.35 4 0.7 4 -1 4 C-0.67 2.68 -0.34 1.36 0 0 Z " fill="#8C97A4" transform="translate(122,222)"/>
<path d="M0 0 C0.99 0 1.98 0 3 0 C3 1.65 3 3.3 3 5 C1.68 5 0.36 5 -1 5 C-0.67 3.35 -0.34 1.7 0 0 Z " fill="#949FAD" transform="translate(394,185)"/>
<path d="M0 0 C0.99 0 1.98 0 3 0 C3 1.65 3 3.3 3 5 C1.68 4.67 0.36 4.34 -1 4 C-0.67 2.68 -0.34 1.36 0 0 Z " fill="#98A3B1" transform="translate(583,306)"/>
<path d="M0 0 C0.99 0 1.98 0 3 0 C3 1.65 3 3.3 3 5 C1.68 4.67 0.36 4.34 -1 4 C-0.67 2.68 -0.34 1.36 0 0 Z " fill="#98A3B2" transform="translate(751,165)"/>
<path d="M0 0 C0.99 0 1.98 0 3 0 C2.67 1.65 2.34 3.3 2 5 C1.01 4.67 0.02 4.34 -1 4 C-0.67 2.68 -0.34 1.36 0 0 Z " fill="#A3AEBD" transform="translate(778,467)"/>
<path d="M0 0 C0.99 0 1.98 0 3 0 C2.67 1.65 2.34 3.3 2 5 C1.01 4.67 0.02 4.34 -1 4 C-0.67 2.68 -0.34 1.36 0 0 Z " fill="#A3AEBD" transform="translate(709,386)"/>
<path d="M0 0 C0.99 0 1.98 0 3 0 C2.67 1.65 2.34 3.3 2 5 C1.01 4.67 0.02 4.34 -1 4 C-0.67 2.68 -0.34 1.36 0 0 Z " fill="#A3AFBE" transform="translate(673,179)"/>
</svg>
